<svg height="512pt" preserveAspectRatio="xMidYMid meet" viewBox="0 0 512 512" width="512pt" xmlns="http://www.w3.org/2000/svg"><g transform="matrix(.1 0 0 -.1 0 512)"><path d="m3053 5093c4-6 0-16-8-23-18-15-20-34-3-24 7 5 8 3 4-5-5-7-15-10-23-6-14 5-14 3-2-12 9-11 10-14 2-9-14 8-17-2-15-43 1-23 1-23-13-5-13 18-14 18-8-3 3-13 10-23 15-23 6 0 8-7 4-15-3-8-1-15 3-15 5 0 12 6 14 13 3 7 6 4 6-6 1-11 5-15 13-11 8 5 9 2 5-9-3-9-1-19 5-23 7-4 8-3 4 4s-2 12 3 12c6 0 11-5 11-11 0-7 9-9 21-6 16 4 19 3 11-5-17-17 9-40 27-24 12 8 13 8 7-1-4-8-2-13 6-13 9 0 9-3-2-10-12-7-8-10 14-10 23 0 26-3 17-13-14-18-2-30 16-16 12 11 18 2 14-23 0-5 5-8 13-8s18-10 21-21c6-17 9-19 16-8 6 10 9 11 10 2 3-28 4-32 13-40 5-5 6-3 2 5-4 6-2 12 3 12 11 0 15-13 12-38-1-7 2-12 6-11 22 4 33-3 33-21 0-11 5-19 12-18 7 2 13-4 14-12 2-30 4-32 20-19 13 11 15 11 14-2-5-29 0-41 14-36 11 4 13 1 9-10-5-12-3-14 8-8 12 7 12 6-1-11-8-10-10-16-6-12 14 12 47-33 40-55-4-12-2-17 4-13 14 8 44-23 38-40-3-7 3-18 12-26 15-12 16-11 3 5-7 9-9 17-3 17 16 0 23-31 10-47-10-12-9-14 7-11 11 1 20-3 21-9 1-7 2-18 3-24 0-5 6-7 13-3 7 5 8 3 2-7-12-20-14-40-3-33 5 3 7 10 4 15s1 6 9 3 13-14 11-25c-3-12 2-19 12-19 14 0 14-2-3-15-18-14-18-14 4-8 13 3 22 1 22-6s-5-9-10-6c-6 4-5-5 2-20 8-18 14-22 20-13 4 7 8 8 8 3 0-6-6-17-12-24-11-11-10-13 5-8 9 4 17 2 17-3 0-6-6-10-12-10-9 0-8-3 2-9 8-6 18-7 24-4 5 3 6 1 2-5-3-6-2-13 3-17 6-3 8-12 4-20-3-8 0-15 6-15 13 0 10-22-4-32-6-5-5-8 3-8 7 0 11-4 8-8-2-4 0-14 6-22 8-12 9-12 4 2-3 10-2 19 2 22 5 3 9-12 10-32 2-20 12-46 22-58 11-11 20-24 20-30 0-5-5-1-11 9-5 9-14 17-20 17-5 0 0-10 11-22 17-19 24-21 40-10 11 7 20 8 20 4 0-5-10-14-22-19-19-9-14-10 28-8 29 2 61 8 73 14 12 7 21 8 21 2 0-5-6-12-12-14-10-4-10-6-1-6 15-1 35 33 25 45-4 5 1 2 11-5 15-12 17-12 11 3-3 9-11 16-16 16-6 0-5 7 2 15 11 13 10 14-6 8s-17-4-7 9c13 15 8 28-11 28-6 0-4-5 4-11 12-8 12-10 1-7-14 4-18 17-23 71-1 16-7 26-14 23s-10 5-8 20c1 13-2 24-7 24-4 0-5 7-2 17 4 10 2 14-5 9-12-7-23 20-24 64-1 16-4 27-8 25-9-6-31 19-29 31 4 26-2 43-15 38-11-4-13 0-9 15 3 13 1 21-7 21-7 0-10 8-7 19 3 12 0 18-7 15s-18 11-26 30c-8 20-18 32-24 29-6-4-4 2 4 12 9 11 10 16 3 11-9-5-13 0-13 16 0 18-2 20-10 8s-10-9-10 13c0 17-5 27-15 27-14 0-19 14-18 47 0 6-6 9-13 6-8-3-14 1-14 11 0 9-5 16-11 16-5 0-7 5-4 10 3 6-1 10-9 10-9 0-13 7-11 19 3 14-1 19-15 16-13-3-16 1-13 16 4 15 0 22-16 26-12 3-21 13-21 24s-7 19-16 19c-11 0-14 6-10 23 3 12 3 16 0 10-4-10-9-10-20 1-8 8-14 18-14 23 0 4-8 17-16 28-16 20-16 19-9-4 5-16 4-21-4-17-6 4-11 16-11 27 0 12-12 27-30 37-27 15-35 30-31 55 1 5-3 6-9 2-6-3-8-11-5-16s-1-6-9-3-12 12-9 20-1 14-9 14c-7 0-20 9-28 19-7 11-17 18-22 15-4-3-8 2-8 10 0 9-9 16-21 16-13 0-18 4-13 12s2 9-9 5c-9-3-16-3-16 1 4 27-2 32-23 21-20-10-21-10-12 2 9 11 9 17-2 27s-14 10-14 0c0-9-3-9-9 2-6 8-7 18-5 22 3 4-7 8-21 8s-24 4-20 9c3 5 0 13-6 17-7 4-9 3-6-3zm771-1212c3-5-1-11-9-14-9-4-12-1-8 9 6 16 10 17 17 5z"/><path d="m2044 4819c-3-6-17-9-30-6-17 3-24 0-24-12 0-9-3-12-8-6-9 13-27 13-39 1-4-5-3-6 4-2 6 3 14 2 17-3 4-5-6-8-20-6-20 2-25-1-21-15 2-9-1-17-9-17-7 0-11 4-8 9 3 4 0 8-5 8-6 0-11-7-11-15s-6-14-12-12c-7 1-12-4-10-11 1-8-6-16-17-19-10-3-22-14-24-25-4-13-11-17-19-13-7 3-4-1 6-9 19-16 19-16-3-16-19 0-22-5-19-27 1-16-2-27-8-26s-11-4-11-12 3-12 7-10c10 6 6-42-4-52-6-5-6-2-1 7 5 8 4 12 0 7-5-4-9-16-10-27-1-16 1-18 13-7 12 10 14 9 9-8-4-11-2-27 3-35 5-9 5-19-2-27-8-10-6-13 8-14 12 0 14-3 6-6-10-4-10-8 0-21 10-12 10-14 1-8-19 11-15-2 7-24 11-11 20-31 20-45 0-15 6-25 14-25 10 0 13-7 11-20s4-25 16-33c10-6 19-18 19-25s5-10 10-7c6 3 10-3 10-15 0-14 4-19 12-14s9 2 5-9-1-17 8-17c7 0 17-5 21-12s3-8-4-4c-8 5-10 2-6-8 3-9 11-13 17-9s8 0 4-11c-6-14-3-15 14-5 19 10 20 9 9-10-9-17-8-21 5-21 8 0 15-5 15-11 0-5 4-7 10-4s7-1 4-9c-3-9-2-16 4-16s12 6 15 13c5 11 6-2 7-55 1-18 3-20 10-8 8 13 11 13 22 1 10-10 10-12 1-7-7 4-13 3-13-3 0-5 9-13 20-16 11-4 18-11 15-16-4-5 1-12 10-15 14-6 14-9 3-16-9-7-7-9 8-5 13 3 21-1 21-9 0-7-4-11-9-8-5 4-4-3 3-14 9-15 17-18 25-11 9 7 12 5 10-8-3-19 15-44 27-36 6 4 11-20 8-39 0-5 4-8 10-8 5 0 7-5 3-12-4-6-3-8 3-5 6 4 22-2 34-14l24-20-25 11-25 11 22-19c12-11 19-22 16-26-6-6 12-10 29-7 5 0 7-2 7-7-3-19 2-33 10-27 5 3 13 0 17-6 4-8 3-9-4-5s-12 2-12-3c0-6 8-11 18-11 15 0 15-2 2-11-12-9-11-10 5-6 16 3 21-1 23-22 1-14 7-30 14-36 8-7 9-6 3 5-8 13-7 13 8 1 13-11 15-17 6-28s-9-12 5-7c16 6 25-6 30-42 2-10 12-18 24-19s25-5 29-10c5-4 0-5-9-2-12 4-15 2-11-9 3-9 12-13 21-9 13 5 13 3 1-12-8-9-9-14-2-10 6 4 14 3 18-3s12-7 18-3c7 4 6-1-2-10-12-15-12-17 3-11 12 5 15 2 10-10-4-11 5-27 25-47 18-17 33-39 34-49 1-15 4-16 14-8 11 8 12 7 7-7-5-13-4-16 4-11 7 4 12 2 12-4 0-7 10-20 23-31 17-15 19-20 9-27-11-7-10-10 3-15 9-4 13-3 10 3s-1 10 4 10c11 0 15-13 12-37-1-8 5-10 15-6 12 4 15 3 10-5-4-7-2-12 6-12 10 0 9-3-2-11-12-9-10-10 8-6 20 5 22 3 10-11-10-12-10-14 0-8 11 7 17-11 13-37-1-5 3-6 8-2 6 3 7 13 4 23-3 9-4 15-2 12 33-40 42-52 32-46-7 4-13 2-13-3 0-6 7-11 16-11 12 0 15-6 11-21-5-17-3-18 9-8 13 10 13 8 5-14-6-14-8-35-6-46 3-14 0-18-12-14-12 5-12 8-1 15 9 7 7 8-9 5-16-4-23 0-23 10 0 12-3 13-14 4-12-10-13-8-9 8 4 15 1 21-10 21-9 0-19 5-23 12-5 7-3 8 6 3 9-6 11-4 6 4-5 7-14 10-22 7-12-5-19 10-16 35 1 4-8 5-19 2s-19-2-18 3c3 18-1 34-8 33-20-3-26 2-13 11 13 8 12 10-3 10-10 0-16 4-12 9 3 6-4 15-15 21s-19 16-17 23c1 7-6 11-17 9-13-3-17 1-13 12s1 13-10 9-14-2-9 5c4 7 2 12-4 12s-9 4-6 9c6 8-30 25-47 22-5-1-6 3-2 9 3 6 11 8 16 5 5-4 9-1 9 6 0 6-8 9-19 6-15-3-18-1-14 11 5 11 3 13-8 7-12-8-12-6 0 9 8 9 10 16 5 15-22-4-34 2-34 17 0 11-6 14-22 9-13-3-18-3-13 2 26 21 9 40-28 34-5-1-6 3-2 9 3 6 11 7 17 4 7-5 8-2 4 5-5 7-19 17-33 22-16 6-23 15-19 24 3 8 0 17-6 21-7 4-8 3-4-4s5-12 2-12c-10 0-35 58-28 65 4 5 2 5-5 1s-9-14-6-24c8-22-1-13-17 17-10 19-9 22 1 16 8-5 10-4 5 3-4 7-13 12-20 12-8 0-20 8-27 17-12 14-12 16 0 8 10-6 12-4 7 4-5 7-14 10-22 7-7-3-16 0-20 6-4 7-3 8 4 4 15-9 16 23 1 44-8 12-9 10-4-7 4-14 2-23-4-23s-11 7-11 15c0 7-6 18-13 22-6 4-18 20-26 36-8 15-21 27-28 27-8 0-11 5-7 12 5 7 2 9-9 5-10-4-14-2-11 6 6 17-34 59-49 50-9-5-9-3 0 8 8 9 9 20 3 29-8 12-10 12-10-4 0-18-14-14-16 5-1 5-2 14-3 19 0 6-8 10-16 10s-12 6-9 13c3 8-3 20-13 28-16 12-17 12-6-2 10-12 10-16 0-16-12 0-16 12-19 54-1 7-5 10-9 7-4-2-10 0-14 5-3 6-13 7-23 4-13-4-13-2 3 11 11 9 16 16 10 15-25-3-34 2-28 18 5 13 2 15-16 10-18-4-21-2-16 14 4 13 2 19-9 19-9 0-16 7-16 16s-5 12-12 8c-8-5-7 0 2 11s10 16 3 11c-7-4-13-2-13 3 0 6-10 11-22 12-13 0-17 3-11 6 10 3 10 8-1 19-8 8-19 14-25 14-5 0-13 5-17 12-5 8-2 9 11 4 15-5 16-4 5 9-7 8-16 12-21 10-4-3-6 3-4 14 3 14-1 18-16 14-11-3-19-2-18 3 4 21-2 35-11 29-5-3-10 0-10 9 0 8-6 17-12 19-10 4-9 8 2 16 9 7 11 11 3 11-7 0-16-7-21-17-8-13-9-11-9 11 0 28-37 76-59 76-7 0-10 8-7 20s0 20-6 20c-7 0-10-4-7-8 2-4 0-14-5-22-9-13-10-13-8 0 3 23-12 50-28 50-8 0-11 5-8 10 3 6 1 10-4 10-6 0-11 7-11 16 0 8-4 12-10 9-5-3-10-1-10 4 0 6-7 11-16 11-8 0-13 3-11 8 3 4-2 14-11 22-14 13-15 12-9-3 3-9 2-17-3-17-6 0-10 7-10 15s-6 15-14 15-18 5-22 12c-5 7-3 8 7 3 12-8 12-6 0 8-11 14-16 15-29 5s-14-10-8 0c5 8-1 12-19 12-14 0-24 4-21 8 2 4-7 9-21 10s-33 8-41 15c-10 7-13 8-9 1 4-8-2-11-18-10-14 0-25 5-25 9 0 5-7 1-16-8-12-12-19-13-24-5s-12 7-24-5c-9-9-16-12-16-6s-5 11-11 11c-5 0-7-4-4-10 3-5 1-10-4-10-23 0-26-2-39-23-7-12-11-15-9-6 3 9-1 16-8 16s-11-6-8-14c3-7-2-13-11-13s-19-7-22-15c-4-8-12-15-20-15-13 0-19-20-15-44 1-5-5-6-14-3-12 5-15-1-15-28 0-35-13-47-24-22-3 6-3 2-1-10 3-12 1-24-5-28-8-5-8-10 0-20 8-9 8-15 0-20-6-4-7-13-1-23 4-9 6-24 4-32-4-13-3-13 5-1 6 8 8 20 5 28-3 7-1 13 4 13s9-16 10-35c0-23-3-33-11-28-6 3-6 0 2-8 6-7 12-24 12-37s4-21 9-17c5 3 12 1 15-4 4-5 1-13-5-17-8-5-9-3-4 6 6 9 4 11-5 5-10-6-7-12 11-26 16-12 19-19 9-19-9 0-6-6 9-16 16-12 22-23 18-40-3-16 0-24 9-24 8 0 14-6 14-12 0-9 4-8 10 2 7 11 8 6 5-17-2-24 0-33 11-33 8 0 14-5 14-11 0-5 6-7 13-3 7 5 6 0-3-11-12-15-12-17-1-10 11 6 13 4 8-9-4-9-3-14 2-11s12 1 16-5 10-8 15-5c4 3 11-2 14-11 3-8 2-12-3-9s-13 1-16-5c-4-6-3-10 2-9 26 4 43-4 49-23 5-13 7-26 7-29-1-3 5-6 13-7s21-3 29-4 12-5 9-10-10-5-16-2c-7 5-8 2-4-5 5-7 15-10 23-7s11 1 8-4c-6-9 8-14 27-11 5 0 7-2 7-7-5-33 3-52 24-53 12 0 16-3 9-6-6-2-10-9-7-13 3-5 12-7 21-3 8 3 14 2 13-3s-1-18 0-29c1-17 3-18 11-5 6 9 10 10 10 3s12-24 26-38 23-32 20-40c-3-9 0-12 9-8 8 3 12 10 8 16-3 6-1 7 6 3 9-6 9-11-1-24-10-12-10-14 0-8 7 4 12 2 12-4s5-8 10-5c6 3 10-1 10-9s9-18 20-21 20-13 20-21 5-14 10-14c6 0 16-11 22-25s17-25 24-25 16-5 20-12 3-8-4-4-12 1-12-8 3-15 8-15c20 3 32-2 32-14 0-8 10-19 23-25 12-6 16-11 9-11-10-1-10-4 0-15 9-9 17-11 25-4 8 6 10 3 6-11-5-19 4-26 29-22 4 0 5-6 1-15-3-9 0-14 8-12 9 2 13-4 11-15-2-10 3-16 10-15 7 2 12-4 10-14-2-13 2-16 14-11 12 4 15 3 10-5-4-7-2-12 4-12s9-4 6-9c-7-11 22-23 35-16 5 4 6-1 3-9-3-9-11-13-17-9-6 3-7 1-3-6s13-10 19-8c7 2 17-10 24-27 7-19 12-24 12-13 1 10 5 16 11 12 5-3 7-12 3-20-3-9 1-15 11-15 9 0 16-5 16-11 0-5 6-7 13-3 7 5 6 0-3-11-14-17-13-18 6-13 16 4 21 1 20-11 0-9 5-15 12-13 6 1 12-5 12-14s-5-12-12-8c-6 4-8 3-4-4 3-6 15-9 26-7s22-1 26-6c3-5 2-9-3-8-25 4-24-4 2-16 17-7 24-14 18-14-7-1-13-6-13-11 0-6 3-9 8-9 27 4 34-1 22-17-8-8-9-14-4-13 26 5 43-2 38-16-4-9 0-15 9-15 20 0 69-48 56-55-5-4-3-12 4-19 6-8 15-12 20-9 6 4 11-18 9-38-1-4 7-5 17-2s22-1 26-8c5-7 4-10-2-6-5 3-10 0-10-8 0-10 5-11 18-5 14 8 16 6 12-11-5-16-2-20 13-17 10 2 19-3 20-9 1-7 2-17 3-22 0-5 10-13 21-16 11-4 18-11 15-16-4-5 1-12 9-15 9-3 16-15 16-25s3-18 8-18c26 4 34-1 22-16-10-12-8-14 8-10 12 2 23-3 26-11 4-10 1-13-7-9-6 4-3 0 8-9 40-30 65-61 60-73-2-7 1-13 8-13 8 0 6-4-3-10-13-9-13-10 0-10s13-1 0-10c-8-5-29-9-47-8-27 2-30 4-20 17 10 12 9 14-5 8-10-3-18-2-18 4s-5 7-12 3c-8-5-9-2-5 10 5 14 3 17-8 12-10-4-15 1-15 14 0 18-11 25-34 21-5-1-3 5 4 14s9 15 4 14c-21-4-34 2-34 15 0 8-5 18-12 22-7 5-8 3-3-7 8-12 6-12-8 0-9 7-17 20-17 27 0 8-5 13-12 12-7-2-12 4-13 12 0 8-8 14-18 14-20-2-23 12-4 19 6 3 1 6-13 6-20 1-22 3-10 11s10 10-10 10-22 2-10 10 11 10-7 10c-16 0-23 6-23 20s-7 20-22 20c-19 0-20 2-8 10s10 10-10 10-22 2-10 10 12 10-5 10-17 2-5 10c12 7 8 10-15 10s-27 3-15 10c9 6 10 10 3 10-6 0-15 9-18 20s-13 20-21 20-14 6-14 13c0 8-4 7-11-3-9-12-10-10-6 8 5 19 2 23-12 19-14-3-17 0-13 16 3 14 1 18-6 13-7-4-13-1-13 6-1 7-2 15-2 18s-12 16-25 29c-16 14-23 17-19 8 3-9 2-19-4-22-5-4-9-3-8 2 4 24-2 53-12 53-5 0-7-5-3-12 4-6 3-8-4-4-6 3-9 15-7 26 3 18 1 19-18 8-19-10-20-9-10 3s8 18-8 30c-33 23-55 41-41 34 6-3 12-1 12 4 0 6-9 11-21 11-16 0-19 4-14 20 4 11 3 20-2 19-28-5-68 24-60 45 3 6-3 18-11 26-14 13-15 12-9-3 3-9 2-19-3-22-6-4-10 8-10 26 0 27-2 30-15 19-15-12-20-4-16 23 0 4-6 7-14 7-9 0-15 9-15 23 0 18-2 19-10 7s-10-12-10-1c0 8-8 20-17 28-10 8-12 11-4 7 10-5 12-3 7 5-6 9-11 9-24-1-12-10-14-10-8 0 4 6 2 12-3 12-6 0-10 3-10 8 1 4 1 16-1 27l-1 20-9-20c-8-18-9-19-9-1-1 11-6 16-15 13-9-4-13 2-12 16 3 31-13 50-30 37-10-9-11-6-6 12 5 21 4 22-11 9-15-12-17-12-11 4 5 13 4 16-4 11-7-4-12-2-12 4 0 7-13 25-30 40s-30 36-30 47c0 15-2 16-10 3-7-11-10-11-10-2 0 7-4 10-10 7-5-3-10 1-10 11 0 12-6 15-21 11-16-4-18-3-9 8 7 8 7 15 1 19-5 3-11 1-13-4-2-7-11-5-23 5-20 15-20 15 0 8 17-6 18-5 5 9-9 9-19 12-25 8-6-5-17-4-25 2-13 8-12 9 2 4 11-3 15-1 12 8s-19 13-40 12c-20-1-38 3-41 8-4 5-1 6 5 2 7-4 12-2 12 3 0 10-7 13-26 10-4 0-11 5-15 13-7 11-9 11-9-1 0-9-4-10-12-4-7 5-39 8-70 8-31-1-55 2-52 6 2 4-1 11-7 15-7 4-9 3-5-4 3-6-3-13-14-17s-18-12-14-18c3-7-2-3-10 7-16 20-21 13-17-24 2-13 1-13-8 0-5 8-7 18-5 22 3 4 0 8-5 8-6 0-11-7-11-16 0-8-5-12-10-9-6 3-10 1-10-5s-3-9-8-7c-4 3-21-6-37-20l-30-26 30 18 30 18-19-21c-11-12-26-22-34-22-10 0-13-8-10-25 3-13 1-22-3-19-5 3-9-1-9-8 0-10-3-9-11 2-8 12-9 10-4-7 4-14 2-23-4-23s-11-5-11-11c0-5 4-7 10-4s7-1 4-9c-3-9-11-13-16-10-7 4-7 0 0-12 5-11 8-36 6-57-3-26 0-36 8-31 7 4 8 3 4-5-6-8-12-9-20-2-9 8-13 7-13-4 0-7 5-13 11-12 5 1 10-2 11-8 0-5 4-16 9-24 7-11 6-12-5-6-11 7-12 6-2-6 9-11 9-19 2-26s-5-12 6-17c11-4 14-2 9 7-4 6-3 8 1 4 10-8 16-31 18-64 0-12 6-21 11-20 6 1 15-13 22-32 7-22 13-29 17-20 3 9 6 6 6-8 1-17 7-23 22-23 19 0 20-2 8-17-10-11-10-14-1-9 6 4 12 2 12-3 0-6 6-11 13-11 19 0 47-33 47-55 0-13 3-15 13-6 14 11 27 5 27-13 0-6-5-4-10 4s-10 10-10 4 6-16 13-22c12-10 17-12 39-12 6 0 4-6-7-13-14-11-15-16-5-22 9-5 11-4 6 3-4 7-4 12 1 12 16 0 30-15 37-37 4-13 14-23 22-23s14-5 14-11c0-5 5-7 12-3 8 5 9 2 5-9-5-13-1-17 18-17 18 0 23-4 19-15-4-9 2-18 17-24 22-9 22-10 4-11l-20-1 20-8c11-5 23-7 27-5 4 3 10-1 14-7 4-8 3-9-4-5-16 10-15-2 2-19 8-9 17-10 23-4s8-2 7-20c-2-25 1-28 20-23 11 3 18 1 14-3-5-5 2-13 14-19s23-18 26-26c2-9-2-7-11 5-8 11-17 18-20 15-2-3 7-16 21-30 13-14 22-19 18-12-11 19 1 14 28-13 14-14 22-25 18-25-5 0-14 6-21 13-10 10-11 9-6-5 4-10 16-18 27-18 10 0 17-4 14-9s3-11 14-14 20-12 20-21 7-16 15-16 12-6 9-14-1-17 5-21c6-3 11 2 12 12 0 12 4 9 11-9 5-16 14-28 19-28s9-6 9-14c0-7 8-20 17-27 10-8 14-9 10-2-4 6-2 15 4 19 8 4 9 3 5-4s-2-12 5-12c8 0 9-3 0-13-14-18-2-30 16-16 12 11 18 2 14-23 0-5 5-8 12-8 13 0 62-50 60-60-1-3 3-4 8-2 5 1 9-7 9-18s3-19 8-19c16 3 32-1 31-9-4-27 1-34 17-22 8 8 14 9 13 4s-1-20 0-34c1-19 3-22 10-10 6 8 7 18 4 24-3 5-1 6 6 2 6-4 9-11 6-16s-1-11 4-15c5-3 8-14 6-24s3-18 10-18 11 6 8 14c-3 7 0 13 6 13s10-3 10-7c-3-20 2-34 11-28 5 3 10-3 10-14 0-12 3-20 8-20 16 3 32-1 31-8-1-5-1-15 0-23 1-13 2-13 12 0 9 12 10 10 6-8-5-20-3-22 11-10 12 10 14 10 8 1-4-9-1-13 10-13 14 0 14-3 4-15-11-13-10-14 5-9 13 5 16 4 11-4s1-12 16-12c18 0 20-2 8-10s-11-10 6-10c28 0 36-10 22-27-6-8-7-13-2-12 28 5 44-3 44-22 0-11 5-17 10-14 6 3 13-1 16-9 3-9 11-16 18-16 6 0 22-16 35-35s27-32 32-29 9-4 9-15c0-12 3-20 8-20 26 4 34-1 22-16-10-12-8-14 7-11s53-23 46-31c-2-2-3-8-3-14 0-8 6-7 17 2 15 13 15 12 3-11-7-14-11-27-9-29s-6-5-19-6c-14-1-21 3-18 11 3 7-2 10-15 7-12-3-19 0-19 8 0 11-3 11-11-1-9-12-10-10-6 8 5 20 3 22-11 10-12-10-14-10-8 0 4 7 2 12-7 12-17 0-77 58-77 76 0 20-21 28-31 13-7-12-9-11-9 2 0 8 6 21 13 29 6 8 2 6-10-4-22-18-22-18-18 2 2 15 0 19-11 15-8-3-14 1-14 11 0 9-7 16-16 16-8 0-12 5-9 10 3 6 1 10-5 10s-8 5-4 13c6 9 5 9-7 1-11-9-17-9-26 1-6 7-9 16-6 19 4 3-2 6-11 6-13 0-17 6-14 18 3 11 0 19-8 19s-14-5-14-11-5-3-11 8c-8 13-8 20 1 26 8 5 7 9-5 13-9 4-13 3-10-3 9-15-4-12-20 4-8 7-11 16-8 20 4 3-4 6-16 6s-19 4-16 10-4 10-17 11c-13 0-17 3-11 6 18 7-9 33-34 33-14 0-15 2-5 9 10 6 8 10-8 14s-21 11-17 22c5 12 3 14-12 5-16-8-18-7-14 13 4 18 3 19-6 7-10-13-11-13-11 0s-1 13-10 0c-5-8-10-10-10-4 0 5 6 16 13 23 6 8 7 11 1 8-11-6-45 27-38 37 2 3-1 2-7-3-8-6-20-1-37 14-14 13-30 21-35 18-6-4-7-1-3 6 6 9 13 8 27-5 10-9 19-14 19-10 0 9-42 45-53 46-5 0-5-5-1-12s3-8-5-4c-6 4-9 12-6 17 9 13-17 36-38 33-15-2-16 0-6 12 9 11 8 14-7 15-11 1-26 0-33-1-13-1-13 1-1 15 11 14 11 16-1 13-8-2-13 3-11 10 2 9-2 11-10 6-22-14-37-13-31 2 5 13-20 20-50 15-5-1-6 3-2 8 3 6 13 8 23 5 14-5 14-4 2 4-8 6-18 8-22 6-4-3-8 1-8 8 0 9-3 9-10-2s-10-11-10-2c0 7-4 10-10 7-5-3-10 1-10 10 0 12-5 15-16 11-9-4-23-1-30 5-8 6-14 8-14 4s8-14 18-22c15-13 14-13-8-1-42 25-70 28-70 10-1-15-2-15-11 1-11 19-29 23-29 6 0-5 6-7 13-3 6 4 8 3 4-1-10-11-39-16-32-6 2 4-2 8-9 8-9 0-12-7-8-16 5-14 3-14-11-2-11 9-17 10-17 2 0-6-5-10-12-9-7 2-12-3-13-9 0-15-13-18-23-7-4 4-1 4 7-1 10-6 12-4 7 4-9 13-21 6-21-12-1-7-6-11-13-9-7 1-12-5-12-15 0-9-3-14-6-10-10 9-41-27-33-38 4-6 3-17-3-25-8-13-9-12-5 2 3 9-1 19-9 22-9 4-12 2-8-5 4-6 0-15-7-20-12-7-12-9 0-9 10 0 11-4 3-12-6-7-9-32-9-56 2-31-2-42-13-43-12 0-12-2 1-7 11-5 15-16 13-35-2-18 1-25 8-21 7 5 9-2 4-20-4-16-2-26 4-26s9 4 5 9c-3 5-2 12 3 15 4 2 9-9 10-26s13-39 25-50 16-17 10-13c-17 8-16-3 1-20 7-8 17-11 21-7 5 4 5-1 2-10-4-10-2-18 4-18s7-4 4-10c-3-5 1-10 10-10 10 0 13 5 9 13-4 6-3 8 1 4 14-12 15-38 2-30-7 3-1-6 12-20 14-15 27-27 30-27s0 5-7 12-12 16-12 22c0 5 6 1 14-10 11-14 11-22 3-32-5-7-6-12-1-11 21 4 33-2 39-20 4-13 12-18 22-14 11 4 14 3 9-6-5-8-1-14 13-18 11-3 18-9 15-14s0-9 6-9 8-5 4-12c-5-9-2-9 9 1 15 12 17 11 17-10 0-19 2-21 10-9s10 10 10-8c0-15 4-21 12-16 7 5 9 2 5-8-3-10 0-15 11-14 9 0 16-5 14-11-1-8 8-13 20-13 19 0 20-2 8-10-12-7-8-10 15-11 25 0 26-2 10-8s-14-9 15-15c25-5 31-9 21-15-9-6-10-11-2-15 6-4 15-5 20-2s11-4 14-15c4-15 11-20 22-15 9 3 13 2 10-4s-2-10 4-10 8-7 5-15c-5-11-2-13 12-8 13 5 15 3 9-7s-3-12 14-7c18 4 20 3 10-9-9-11-7-14 12-15 13 0 18-3 12-6-21-8-15-22 7-16 12 3 20 2 19-3-4-24 2-36 16-30 9 3 15 0 15-9 0-8 5-15 11-15 5 0 7 5 3 12s-3 8 5 4c9-6 9-11 1-21-10-11-8-13 9-10 11 2 24-1 27-7 4-6 2-8-4-4-6 3-14 2-17-4-4-6-3-9 2-8 18 5 53-14 53-29 0-10 6-14 20-10 16 4 18 2 10-13-8-14-6-18 6-16 18 3 63-34 57-47-2-4 1-7 7-7s8-4 5-10c-3-5 0-7 8-4s18 0 23-7c5-8 3-10-6-4-9 5-11 4-6-3 4-7 14-12 22-12s14-9 14-20 5-20 10-20c6 0 10 6 10 13 0 8 3 7 9-3 6-8 8-17 5-21-2-4 1-11 7-15 8-4 9-3 5 4s-2 12 3 12c6 0 11-7 11-16 0-11 6-14 23-9s18 4 7-4c-17-12-10-21 18-24 11 0 18-5 16-9-3-5-10-5-16-2-7 4-8 2-4-4 4-7 16-12 27-12s22-7 25-15 14-17 25-20c11-4 17-10 14-14-2-5 3-17 11-27 14-17 15-17 10-1-3 11-2 16 4 12 6-3 10-13 10-20 0-10 6-12 18-8 15 6 16 5 2-12-9-11-10-16-2-11 6 4 12 2 12-3 0-6 9-11 20-11s19-6 17-12c-1-8 8-13 21-12 16 0 19-3 12-10-16-16-12-26 11-26 15 0 19-4 15-16-5-14-4-15 9-4 12 10 15 10 15-4 0-9 5-16 11-16 5 0 7-5 4-10-3-6 3-10 14-10 12 0 26-9 33-20s19-20 27-20c11 0 11-3 1-15-11-13-10-14 5-9 14 6 16 4 10-7-7-12-6-12 11 1 10 8 16 11 12 6-8-9 15-36 31-36 6 0 8-6 5-14s0-17 7-22c8-4 10-3 5 4-4 7-3 12 2 12 6 0 12-7 16-15 3-8 0-15-6-15s-8-3-5-6c4-4 14-1 24 7 11 9 14 10 9 1-5-8-1-12 11-12 15 0 16-2 3-10-12-8-10-10 9-10 13 0 21-3 18-6-3-4-1-16 5-27 10-20 11-20 25-1 14 18 15 18 8-5-6-20-4-23 9-18 11 5 16 1 16-12 0-15 5-18 23-14s19 3 7-6c-11-8-12-11-2-11 8 0 10-5 6-12-5-8 0-7 11 2s16 10 11 3c-5-9-1-13 11-13 15 0 16-2 3-10-14-9-8-12 16-9 3 0 14-9 23-20 10-11 21-18 25-14 3 3 6-3 6-15 0-15 5-20 18-17 10 2 25-1 33-6 10-6 10-9 2-9-7 0-13-5-13-11 0-5 4-7 10-4 5 3 10-2 10-12 0-12 3-14 8-6s13 9 22 3c13-9 13-10 0-11-8 0-1-7 15-14 17-7 29-17 28-22-1-4 5-7 14-5 10 2 12-1 7-9-5-9-2-10 9-6 10 3 17 2 17-2 0-5-6-12-12-14-7-3 2-6 20-6 26-1 32-5 32-23 0-19 2-20 10-8s10 12 10-5 2-17 10-5c8 13 10 12 10-2 0-11 8-18 19-18s23-5 26-10c4-6 11-8 16-5 5 4 6-2 2-11-5-14-3-16 11-11 11 5 15 3 10-5s-2-9 10-5c13 5 19 1 23-14 4-16 8-17 14-7 7 10 9 10 9 1 0-7 9-13 21-13 11 0 17-5 14-10-4-6 7-10 25-10 17 0 38-7 46-15s21-12 29-9c8 4 18-1 21-10s10-16 16-16c5 0 7 4 4 9-4 5 2 8 11 6 10-2 22-4 26-4 5-1 5-6 2-11-5-8 77-17 109-11 5 1 20-8 35-21 14-12 20-16 14-8-19 21-16 25 18 26 20 1 27-1 18-6-7-5-17-6-23-3-5 4-6 1-2-6 5-7 14-10 22-7s14 2 14-3c0-4 7-8 15-8 11 0 12 4 3 14-6 7-8 16-4 20 3 3 6 0 6-7s3-10 7-7c3 4 12-1 20-11 14-16 14-16 9 1-3 10-2 15 4 12 5-3 19-1 31 6 15 8 19 8 15 0-10-15 7-14 24 1 12 11 12 10 2-4-10-12-10-18-1-24 8-4 9-3 5 4-5 8 2 12 18 12 14 0 26-5 26-11 0-5 5-7 11-3 8 4 5 11-9 18-18 9-14 11 28 12 29 1 47-3 44-8s3-5 15 1c53 27 61 31 68 31 5 0 1-5-7-10-13-8-12-10 3-10 9 0 17 5 17 10 0 6 5 10 11 10 5 0 7-5 3-12s-3-8 5-4c6 4 9 12 6 17-6 8 17 13 53 12 8-1 11 5 7 14-5 14-3 14 12 2 9-8 14-9 10-3-6 11 8 15 80 26 6 1 9 7 6 13-5 15 32 26 44 14 4-4 15-4 23 1 11 7 11 10 2 10-7 0-11 4-7 9 3 6 15 8 26 6 15-3 19 0 15 11-3 9-1 12 4 9 6-3 10-1 10 4 0 6 12 11 26 11 24 0 25 2 13 17-8 9-9 14-2 10 17-10 43 3 44 22 0 12 2 12 9-4 8-19 9-19 9-1 1 11 4 16 7 13 4-3 16 5 27 19 15 20 22 23 28 12 7-10 11-7 15 10 6 21 7 21 20 5 11-15 13-15 8-2-3 11 2 18 16 22s19 10 14 18c-5 9-2 10 9 6s14-2 11 8c-3 8 1 12 13 12 10-1 17 4 15 12s3 11 12 8c9-4 23 4 35 19 11 13 23 23 28 22 4-2 8 0 8 3 0 13 28 38 36 33 5-3 6 3 2 12-5 13-3 16 9 11 17-6 33 18 23 34-4 5 1 6 9 3 10-4 16-1 16 9 0 9 5 19 12 23s8 3 4-4c-5-8-1-10 9-6s15 14 12 25c-4 13 0 16 15 14 14-3 18 0 14 11-4 10 0 14 11 12 9-2 18 4 20 12 4 13 3 13-6 0-7-9-11-11-11-3 0 7 6 16 13 20 8 4 19 17 26 28 11 19 12 18 6-5-5-22-4-23 5-7 7 10 9 25 6 34-6 14-4 14 11 2 11-9 14-10 9-1-4 7-2 12 4 12s8 5 4 12c-5 8-2 9 11 4 16-6 16-4 4 11-7 10-9 15-5 11 14-12 36 11 29 30-6 15-5 16 12 2 10-8 16-10 12-3-4 6-2 15 4 19 8 4 7 9-2 15-10 6-7 9 11 10 14 0 19 3 13 6-14 5-18 24-5 22 24-4 34 3 29 20-3 13 0 18 8 15 7-3 16 0 21 7 4 8 3 10-4 5-7-4-12-2-12 3 0 6 4 11 9 11s16 12 26 26c9 15 13 24 7 20-9-5-9 1-3 33 1 2 8-2 17-9 12-11 15-11 12 1-2 8-7 17-13 21-6 5-3 8 6 8 11 0 15 9 13 30-1 16 2 28 6 25s13 2 19 9c8 9 8 16 2 20s-7 14-4 22c5 14 8 12 19-7 12-21 13-21 11-4-1 11-7 26-11 34-6 10-5 12 2 7 8-5 12 1 13 16 2 56 14 82 29 59 5-9 7 4 6 33-2 25 1 46 6 46s4 10-3 21c-10 20-9 21 10 16 18-4 20-3 10 9-6 7-16 11-22 7-6-3-7-1-3 6 4 6 12 9 17 6 5-4 9-1 9 4 0 6-6 11-12 11-9 0-9 3 1 9 10 7 14 35 14 109 0 69 4 99 11 95 6-3 5 0-1 8-17 17-17 32 0 23 8-6 8-3-2 9-7 9-10 24-7 33 4 10-1 25-11 36-13 14-13 18-2 13 11-4 14 1 14 20-1 14-5 28-10 32-4 5-5 2 0-6 6-10 4-12-4-7-9 6-9 11 0 22s9 14-1 14c-8 0-11 13-8 40 2 22 1 40-2 40s-4 20-3 45c1 29-2 43-9 39-6-4-6 2 1 15 9 16 9 21-1 21-9 0-9 3 0 12 16 16 15 28-2 28-8 0-18 5-22 12s-3 8 4 4c17-10 35 3 24 17-5 7-12 20-16 31-5 14-3 17 10 12s14-3 6 6c-15 19-15 30-2 38 9 5 6 10-9 15-18 5-20 9-10 21 6 8 8 14 4 14s-1 8 6 18c13 15 12 16-4 3s-17-9-17 58c0 42-4 70-9 66-5-3-13-1-16 5-4 6-3 10 2 9 21-4 25 2 8 14-14 11-15 16-5 22 9 6 11 4 5-5-5-9-4-11 3-6 15 9 15 11-5 27-14 12-16 12-8 0 5-10 4-12-4-7-9 6-9 11 0 22s8 14-2 14c-11 0-11 2 1 10 12 7 11 12-5 31-11 12-15 19-8 16 16-10 10 42-7 53-8 5-9 9-1 14 6 4 11 13 11 19 0 7-4 6-10-3-8-12-10-11-10 7 0 12-5 25-10 28-8 5-8 11 0 20 11 14 9 50-5 62-4 5-5 3-1-4 3-6 2-14-3-17-5-4-8 2-6 11 1 10-2 26-7 37-8 14-7 17 3 11 9-6 11-3 6 8-4 10-2 14 6 11s13 5 14 18c2 18 0 20-7 8-8-13-10-12-10 3 0 9 6 17 13 17 8 0 9 3 1 8-6 4-16 16-22 28-9 16-8 21 3 21 7 0 11-6 8-14-3-7-1-13 4-13s9 9 10 20-2 20-8 20c-5 0-9 5-9 11 0 5 5 7 10 4 14-9 12 19-2 34-11 10-10 12 1 9 10-2 14 9 13 44 0 38 3 45 16 41 10-4 13-2 8 6-4 6-2 19 6 28 9 12 9 15 1 9-20-12-15 5 10 32 12 14 17 22 10 18-6-3-14-2-17 3s1 11 9 15c9 3 15 19 15 41 0 26 4 34 13 29 9-6 9-4 0 7-7 7-13 18-13 24 0 5 5 3 10-5 8-13 11-13 22-1 10 10 10 12 1 7-7-4-13-2-13 3 0 6 6 11 13 11 8 0 7 4-3 10-13 9-11 13 10 31 14 11 19 18 13 14-7-3-13-1-13 4 0 6 5 11 10 11 6 0 10 9 10 21 0 11 4 18 9 14 6-3 8 3 6 14s3 22 11 25c9 3 12 10 9 16-3 5 0 10 7 10 10 0 10 2-1 9s-9 10 8 16c11 3 22 14 23 23 0 9 2 22 3 27 2 6 3 16 4 23 0 7 5 10 11 7 6-4 10 5 10 20 0 18 4 24 13 19 8-5 7-2-2 9-8 10-11 20-7 24 3 3 6 2 6-4 0-5 7-10 15-10 11 0 12 4 4 14-8 9-8 13-1 13s9 7 5 17c-5 13-2 15 12 10 15-6 16-5 5 8-10 12-9 15 6 15 16 0 17 2 4 10-10 7-11 10-2 10 8 0 11 9 8 25-3 15-1 23 5 20 5-4 6-11 3-17-4-7-2-8 5-4 6 4 9 12 6 17-4 5-3 15 2 22 4 6 8 18 9 25 2 10-1 10-12 1-7-6-11-16-7-22 3-6 1-7-5-3-9 5-9 12-1 29 9 16 9 22 0 25-6 2-11 8-11 13 0 6 5 7 10 4 16-10 11 1-7 16-10 8-14 9-10 2 4-6 4-14-1-17-4-2-8 4-9 14-2 23-42 70-60 70-9 0-11 5-7 13 5 7 0 6-11-3-10-8-16-10-12-3s-5 15-23 22c-17 5-30 14-30 18 0 9-51 16-98 16-17-1-20 2-12 12s4 12-20 9c-16-2-30 0-30 5 0 4-6 8-14 8s-12-6-9-13c2-7 15-11 28-9 14 1 22-2 19-6-7-11-38-6-57 9-12 10-18 10-28 0-17-16-63-22-54-7 4 6-2 5-13-2-12-7-19-16-16-20 2-4 0-11-6-14-6-4-9-1-8 6 2 6-3 14-11 17s-11 0-7-7c4-6 1-12-6-13-50-5-79-18-72-30 5-7 1-9-9-5-11 4-17 1-17-8 0-8-5-15-11-15s-8 7-5 16c3 8 2 12-4 9s-10-12-10-20-5-17-12-21c-7-5-8-3-3 5 5 9 2 9-14 0-14-10-17-15-8-21s8-8-2-8c-8 0-20-8-27-17-13-17-14-17-7 2 6 17 5 18-9 5-9-8-15-19-15-25 1-5-6-9-15-7-10 2-18-2-18-8 0-5 6-10 13-11 6-1 1-4-13-8s-24-13-22-19c1-7-3-12-9-12-5 0-7-5-3-12 5-8 2-9-11-4-16 6-16 4-4-11 8-9 9-14 2-10-7 5-14-2-19-15-9-29-44-75-44-58 0 7-3 10-6 7-4-4-1-14 7-24 8-9 9-14 3-10-7 4-18-1-25-10-12-14-12-15-1-9 11 7 12 4 3-11-6-11-7-24-3-28 4-3 1-5-7-3-7 1-16-3-19-11-3-10 0-11 9-5 12 7 12 5 1-9-8-9-11-21-7-27 3-5 2-10-4-10s-7-7-4-17c4-11 3-14-5-9-7 4-12 2-12-3 0-6 5-11 10-11 6 0 10-5 10-11 0-5-4-8-9-5-14 9-21-20-8-33 14-14 20-51 8-51-6 0-8 9-6 20s0 20-5 20c-10 0-20-26-12-34 11-12 12-46 1-46-8 0-8-4 0-13 8-10 7-17-2-27s-9-11 0-6 11-2 8-21c-7-46-10-57-18-70-4-6-3-14 2-18 6-3 8-12 5-20-4-8-9-13-13-10-4 2-8-2-8-10s4-12 9-9c4 3 8 0 8-5 0-6-6-11-14-11s-17-7-20-16c-3-8-2-12 4-9 13 8 13 2-1-29-7-14-16-23-20-20-8 5-14-17-10-39 0-4-2-6-6-6-21 3-33-2-33-16 0-9-6-12-16-8s-17-1-20-14c-4-14-15-21-37-22-54-3-56-4-51-13 3-4 0-8-5-8-6 0-11 4-11 9 0 11-19 9-38-3-7-4-19-3-26 3s-25 12-40 13c-14 1-26 8-26 15 0 6-5 15-12 19-7 5-8 3-3-7 7-11 5-11-11 1-10 8-25 21-32 28-13 12-28 16-46 13-5-1-4 5 4 13 8 11 9 16 1 17-32 4-36 6-33 18 1 7-7 15-18 18-12 3-20 14-20 25 0 15-5 18-16 14-14-5-15-4-4 9s10 14-4 9c-11-4-16-1-16 12 0 14-2 16-9 6-6-10-10-5-14 17-4 20-13 31-23 31s-14 6-11 14c4 9 0 12-12 9-15-4-18 1-17 24 1 21-3 27-16 25-9-1-20 3-24 9-5 8-3 9 6 4s11-4 6 3c-4 7-15 12-24 12-15 0-15 2-2 10 14 9 7 12-17 9-8-1-23 26-28 53-3 11-7 23-11 27-4 3-4-2-1-11 3-10 2-20-4-23-5-4-8-3-7 2 4 17-14 53-28 53-12 0-13 4-3 23 12 21 11 21-6 7s-18-13-13 8c5 19 4 21-8 11-11-9-14-7-14 11 0 15-5 20-14 17-10-4-13-1-9 9 3 7 0 14-7 14s-10 7-6 16c5 14 4 15-8 5s-14-8-12 13c2 19-3 26-21 31-20 5-23 8-13 20s9 15-9 15c-11 0-21 4-21 10 0 5 8 7 18 4 14-5 14-4 2 4-8 6-17 9-21 6-4-2-16 7-27 21-11 13-21 23-23 22s1 3 8 9c16 14 6 24-21 24-16 0-18 3-7 9 9 6 10 11 2 15-6 4-11 4-11-1-1-19-20 24-20 45 0 12-5 22-11 22-5 0-8-4-4-9 3-5 0-13-6-17-7-4-10-3-7 2 9 15-10 54-26 54-9 0-13 9-11 25 2 22-1 25-19 19-19-6-20-5-6 11 9 11 10 16 3 11-9-5-13 0-13 16-1 23-1 23-16 3-15-19-15-19-8 8 5 24 3 29-15 34-13 3-20 11-17 19s1 14-5 14-7 5-4 10c8 13-8 13-21 0-7-7-11-6-11 4 0 8 4 13 9 10 4-3 8 0 8 5 0 6-5 11-11 11-5 0-7 5-3 12 5 8 2 9-9 5-13-5-17 0-18 21-1 15-1 30-1 33 1 3-6 6-13 6-10 0-12-4-5-12s5-12-3-12c-12 0-16 12-19 55-1 6-11 12-22 13-12 0-15 3-8 6 10 4 8 9-5 22-10 9-27 26-37 39-20 23-20 23 0 17 15-5 15-4-3 7-12 7-22 18-22 23-1 6-7 10-13 10-7 0-12 8-10 18 3 15-8 22-30 18-5 0-8 11-8 25s-4 23-8 20c-5-3-15 7-23 22s-18 30-22 33-9 15-10 26c-1 14-6 19-19 15-14-3-18 2-18 23 0 20-4 26-15 21-8-3-14 0-12 7 1 7-6 11-18 9-17-3-18-2-5 10 8 7 14 12 11 11-2-1-10 5-18 13s-18 12-23 9c-4-3-6 3-3 14 3 13-2 20-17 24s-21 11-17 21c5 12 0 16-21 17-15 0-21 3-15 6 10 3 10 8-1 19-17 17-30 19-20 2 4-7 3-8-4-4-6 4-9 13-5 21 3 10-1 15-15 15-12 0-24 5-27 10-4 6-11 7-17 4-7-4-8-2-4 4 5 9 13 9 29 1 18-9 20-9 10 1-11 12-21 15-66 19-5 1-6 4-4 9 7 11-15 27-41 29-15 2-21-1-16-9 4-7 3-8-4-4-6 4-8 14-5 24 6 15 5 16-12 2-11-9-16-10-11-2 5 9-4 12-34 12-25 0-39 4-35 10 3 6 4 10 1 10s-8-5-12-11zm-1054-373c0-3-4-8-10-11-5-3-10-1-10 4 0 6 5 11 10 11 6 0 10-2 10-4zm-70-121c-10-12-10-15 0-15 8 0 11-3 7-6-3-3-11-3-17 1-8 5-8 11 1 21 6 8 14 14 16 14 3 0 0-7-7-15zm685-25c26-28 15-31-12-3-12 13-19 23-14 23 4 0 16-9 26-20zm-675-14c0-2-7-7-16-10-8-3-12-2-9 4 6 10 25 14 25 6zm3760-266c0-5-5-10-11-10-5 0-7 5-4 10 3 6 8 10 11 10 2 0 4-4 4-10zm-400-220c0-5-2-10-4-10-3 0-8 5-11 10-3 6-1 10 4 10 6 0 11-4 11-10zm-2225-60c3-5 1-10-4-10-6 0-11 5-11 10 0 6 2 10 4 10 3 0 8-4 11-10zm2880-220c3-5 1-10-4-10-6 0-11 5-11 10 0 6 2 10 4 10 3 0 8-4 11-10zm-2490-29c3-5 2-12-3-15s-9 1-9 9c0 17 3 19 12 6zm-1080-111c3-5 1-10-4-10-6 0-11 5-11 10 0 6 2 10 4 10 3 0 8-4 11-10zm2751-55c0-28-8-24-13 5-2 11 1 20 5 20s8-11 8-25zm694-125c0-5-5-10-11-10-5 0-7 5-4 10 3 6 8 10 11 10 2 0 4-4 4-10zm-1978-227c-6-2-9-10-6-15 4-7 2-8-5-4-13 9-5 26 12 25 9 0 8-2-1-6zm1479-2446c-6-8-8-17-4-21s0-4-10 0c-17 6-17 7 0 20 23 17 28 18 14 1zm-46-47c-3-5-11-10-16-10-6 0-7 5-4 10 3 6 11 10 16 10 6 0 7-4 4-10z"/><path d="m2825 4749c-4-5-12-6-18-3-7 4-9 4-5-1 4-4-2-16-14-26-11-11-16-19-10-19 18 0 2-30-17-31-11 0-12-2-3-6 10-4 10-8 1-19-6-8-9-15-5-15 3-1 11-3 16-4 6-1 17-3 25-4 8 0 15-8 15-16s5-15 11-15c5 0 7-6 3-12-5-9-2-9 9 1 15 12 17 11 17-9 0-19 2-21 16-10 12 11 15 11 12-1-2-8 3-13 11-11 9 2 11-3 7-15-4-9-4-14 0-10 4 3 14-1 23-11s24-21 34-25c9-3 17-14 17-22 0-10 5-13 12-9 8 5 9 2 5-10-5-14-3-17 8-12 10 3 15-1 15-13 0-20 30-51 48-51 7 0 13-7 13-15 1-8 3-19 4-25 1-5 3-13 4-16 0-4 8-1 16 6 13 11 15 9 13-11-2-16 2-23 11-21 12 3 12 0 1-13s-10-15 3-9c12 4 15 1 12-16-3-18-2-20 10-10 11 9 12 7 8-12-4-18-3-20 6-8s11 11 11-8c0-16 4-21 13-16 8 5 8 2-2-9-12-15-11-17 5-17s17-2 4-10-13-10 1-10c9 0 23-8 30-17 13-16 12-17-4-4-15 12-17 12-11-3 3-9 10-16 15-16s9-8 9-19 9-21 22-24c18-5 19-8 8-21-10-13-10-16 0-16 8 0 11-9 8-25-3-13-2-23 1-21s12-2 19-10 10-14 6-14c-3 0 0-8 7-17 9-11 10-14 2-9-9 5-11 2-7-8 3-8 12-17 21-20 9-4 13-16 11-35-1-18 5-37 17-51 16-18 16-20 2-14-9 3-17 2-17-3 0-10 7-11 55-14 13-1 22-5 20-9-6-10 15-8 32 3 6 4 14 1 16-5 4-10 6-10 6 0 1 6 6 12 12 12 5 0 8-4 4-9-3-5-1-13 5-16 6-4 10-3 9 2-3 19 2 34 10 28 15-8 21 9 9 25-8 12-9 12-4-3 3-11 2-16-4-12-6 3-10 15-10 25s-6 21-12 23c-10 4-10 6 0 6 15 1 16 31 1 31-5 0-7-5-3-12 4-6 3-8-3-5-6 4-8 18-5 32 3 16 0 25-8 25-7 0-10 8-7 20 3 14 0 20-10 20s-14 6-10 20c3 14 0 20-10 20-13 0-13 3-3 15 8 10 9 15 2 15s-9 8-5 18c6 14 4 15-9 4-13-10-15-9-15 5 0 46-4 63-14 63-5 0-8-4-4-9 3-5 0-13-7-17s-10-4-6 1c4 4 2 15-5 23-8 11-9 14 0 9 8-5 11 0 10 13-1 11-7 20-14 20-8 0-16 14-19 30-4 17-11 30-16 30-6 0-8 9-5 19 3 15 1 18-11 14-11-5-14-2-9 10 4 11 1 17-7 17s-17 7-20 16c-5 12-3 14 7 8 7-5 5-2-5 8-10 9-18 24-18 35 0 15-2 16-10 3-8-12-10-11-10 8 0 13-6 22-15 22s-12 6-8 17c5 12 2 15-9 10-12-4-15 0-11 16 4 18 3 19-6 7-9-13-11-12-11 3 0 10-4 15-10 12-5-3-11-1-11 4-2 12-5 26-9 39-1 4-2 10-2 13 1 4-8 4-20 1-14-3-19-1-14 6 4 7 2 12-4 12s-8 5-5 10c3 6-1 10-9 10s-18 9-21 20c-4 11-10 18-15 15s-14 4-20 15-17 20-25 20-15 5-15 11c0 5 5 7 12 3s8-3 4 5c-6 9-11 9-24-1-12-10-14-10-8 0 5 8 1 12-12 12-11 0-23 8-27 18-5 14-4 15 6 5 7-7 17-13 23-13 18 0-28 29-47 30-10 0-20 7-23 15-4 8-11 12-17 8-7-4-8 1-4 13 7 18 6 18-9-1-16-20-16-20-11 2 5 23-17 40-28 22zm216-356c13-16 12-17-3-4-17 13-22 21-14 21 2 0 10-8 17-17z"/><path d="m3340 4201c0-6 4-13 10-16s7 1 4 9c-7 18-14 21-14 7z"/><path d="m3650 4080c0-5 5-10 11-10 5 0 7 5 4 10-3 6-8 10-11 10-2 0-4-4-4-10z"/><path d="m960 4061c0-6 4-13 10-16s7 1 4 9c-7 18-14 21-14 7z"/><path d="m3238 4053c7-3 16-2 19 1 4 3-2 6-13 5-11 0-14-3-6-6z"/><path d="m3301 3884c0-11 3-14 6-6 3 7 2 16-1 19-3 4-6-2-5-13z"/><path d="m3910 3859c0-5 5-7 10-4 6 3 10 8 10 11 0 2-4 4-10 4-5 0-10-5-10-11z"/><path d="m1210 3736c0-2 7-7 16-10 8-3 12-2 9 4-6 10-25 14-25 6z"/><path d="m4196 3713c-6-14-5-15 5-6 7 7 10 15 7 18s-9-2-12-12z"/><path d="m3081 3693c-1-17 16-25 25-12 4 7 3 9-4 5-5-3-13 0-15 6-4 9-6 10-6 1z"/><path d="m910 3680c0-5 9-8 20-7 21 1 18 10-5 13-8 1-15-2-15-6z"/><path d="m1475 3440c3-5 8-10 11-10 2 0 4 5 4 10 0 6-5 10-11 10-5 0-7-4-4-10z"/><path d="m611 3396c-8-10-9-16-1-21 5-3 10-5 11-3 4 18 7 38 4 38-1 0-8-6-14-14z"/><path d="m3790 2950c0-5 5-10 11-10 5 0 7 5 4 10-3 6-8 10-11 10-2 0-4-4-4-10z"/><path d="m2042 2800c7-11 17-20 22-20s1 9-9 20-20 20-22 20 2-9 9-20z"/><path d="m4757 2793c-10-9-9-23 1-23 5 0 9 7 9 15 0 17-1 18-10 8z"/><path d="m2370 2420c0-5 5-10 11-10 5 0 7 5 4 10-3 6-8 10-11 10-2 0-4-4-4-10z"/><path d="m482 1923c-4-10-17-18-29-19-19 0-21 2-10 15 6 8-3 5-21-8-33-23-35-41-4-41 15 0 15-2 2-10s-13-10 2-10c18 0 33-33 23-50-3-5 2-10 12-10 15 0 16-2 3-10s-12-10 4-10c12 0 16-5 12-16-4-10-2-13 6-8s9 2 5-9c-4-10 0-20 9-25 8-5 16-18 17-29 1-15 6-19 22-16 16 4 17 3 5-6-10-7-11-11-3-11 7 0 12-3 12-7-3-21 2-33 14-30 7 1 12-7 11-20-1-18 2-21 16-13 11 6 17 5 17-3 3-45 8-65 15-61 5 3 5 11 1 17-4 7 1 6 10-2 14-11 15-16 5-29-7-9-8-13-2-9 6 3 17-5 24-18 7-14 22-25 33-25 17 0 18-2 6-17-8-9-9-14-3-10 7 4 14 0 18-8 3-8 17-20 31-27 14-6 25-17 25-25 0-7 7-13 15-13 9 0 12-6 8-17s-3-14 5-9c7 4 12 2 12-6 0-9 3-9 10 2 8 12 10 11 10-7 0-21 15-29 43-24 5 1 6-3 2-9-3-6-12-7-18-4-9 5-9 4-1-5 6-7 21-13 33-14 23-1 28-13 9-20-7-3 2-6 21-6 29-1 32-3 21-16-7-9-10-18-6-22 3-3 6-1 6 5 0 9 6 9 25 0 14-6 25-15 25-20 0-4 7-8 15-8s15-5 15-11c0-8 6-7 17 2 15 13 15 12 5-6-9-19-7-21 21-23 17-2 36-8 42-14 7-8 6-9-2-4-7 4-13 5-13 1 0-13 45-22 53-11 5 6 7 2 4-11-3-12-2-22 2-21 27 3 71-4 67-11-3-5 2-15 11-22 12-10 14-10 9-1-4 7-2 12 6 12 9 0 9 3-2 10-8 5-12 10-7 11 4 1 12 3 17 4 6 1 13 3 17 4 4 0 2 6-4 12-13 13-5 42 9 33 6-4 5 4-2 16s-8 20-2 16c5-3 12 0 15 8 6 16-1 26-17 26-6 0-4-5 4-10 13-8 12-10-2-10-11 0-18 7-18 18 0 14-2 15-10 2s-10-12-10 3c0 10-4 15-10 12-5-3-10 1-10 10s-4 14-9 10c-5-3-12-1-15 4s-15 7-26 4c-12-3-20 0-20 6 0 7 5 9 12 5s8-3 4 5c-4 6-13 11-19 10-30-4-47 2-47 16 0 8-7 15-16 15-10 0-14 6-10 15 3 8 2 14-2 13-15-4-52 14-47 23 5 8-16 14-37 10-8-1-12 15-9 32 1 5-3 6-9 2-5-3-10 2-11 12 0 16-1 16-9-2-7-17-9-16-10 10-1 17-4 24-7 17-2-6-9-10-13-7-5 3-6 13-3 22 4 11 3 14-5 9-7-4-12-2-12 4s-4 9-9 6c-12-8-22 20-15 42 4 12 3 14-4 4-7-11-12-11-24 2-9 8-18 12-22 9-3-4-6 3-6 15 0 15-6 22-20 22-15 0-20 7-20 26 0 17-6 28-20 31-11 3-20 14-20 24 0 11-7 19-17 19-9 0-13 3-10 7 4 3-1 12-11 20-9 8-12 12-5 9 6-4 15-1 19 5 4 8 3 9-4 5s-12-2-12 4-5 8-11 5c-6-4-10-1-8 6 3 28-1 38-16 33-11-5-13-2-9 10 3 9 1 16-5 16s-11 12-12 28c0 24-1 25-9 7-9-21-10-18-14 45-1 14-15 15-26 3-3-4 1-3 7 1 9 5 11 2 7-9-9-21-17-12-18 22-1 16-7 37-15 48-7 12-10 13-8 4 3-9-1-16-8-16s-11 7-8 15c4 10 0 13-13 10-10-2-18-10-16-17 1-7-2-9-8-6-6 4-9 13-6 21 8 20-3 17-12-3zm-62-33c0-5-5-10-11-10-5 0-7 5-4 10 3 6 8 10 11 10 2 0 4-4 4-10zm261-417c13-16 12-17-3-4-10 7-18 15-18 17 0 8 8 3 21-13zm53-59c3-8 2-12-4-9s-10 10-10 16c0 14 7 11 14-7zm316-108c0-3-4-8-10-11-5-3-10-1-10 4 0 6 5 11 10 11 6 0 10-2 10-4z"/><path d="m1936 1845c4-8 11-15 16-15 6 0 5 6-2 15-7 8-14 15-16 15s-1-7 2-15z"/><path d="m144 1787c5-15 1-18-22-17-15 1-31 1-37 0-5-1-19-1-31-1-22 2-40-14-46-39-2-8 4-14 12-15 9 0 14-8 12-18-2-9 2-25 8-35 9-14 10-13 5 8-5 23-5 23 6 5 6-11 19-26 28-34 14-12 14-13-4-7-18 5-18 5-4-7 9-6 19-22 23-35 4-12 11-20 16-17s12 0 16-6c4-8 3-9-4-5s-12 2-12-3c0-6 5-11 10-11 6 0 10-9 10-20 0-12 7-20 18-20 14 0 15-2 2-10s-12-10 3-10c20 0 23-16 5-24-7-4-3-4 10-2 19 4 22 0 22-25 0-22 5-29 19-29s19-6 16-19c-3-15 0-18 13-14 15 6 15 5 3-11-8-9-10-16-5-15s16 1 24 0c13-1 13-2 0-11-11-7-11-10-2-10 8 0 10-5 6-12-5-9-2-9 9 1 15 12 17 11 17-11 0-29 33-63 51-52 7 4 10 3 6-4-9-14 3-43 14-36 5 3 9-2 9-10 0-9 5-16 11-16 5 0 7-4 4-10-6-9 8-14 28-11 5 1 6-3 3-8s0-11 8-14 20-18 28-34c8-15 21-27 30-27 10 1 14-4 11-12-4-10 0-12 12-8 15 6 16 4 6-14s-8-20 15-17c18 2 24-2 20-11-3-8 1-14 9-14s15-7 15-16c0-8 4-12 10-9 5 3 10 1 10-5s4-8 10-5c5 3 10-4 10-15 0-16 4-20 16-16 8 3 22-1 30-9 9-8 13-15 10-15s5-10 17-23c15-16 26-20 35-14 8 7 12 4 12-8 0-9 9-19 20-22s20-9 20-14c0-4 15-13 34-20s34-17 33-23 6-10 16-8c9 2 17-2 17-7s9-8 21-6c15 3 19 0 15-10-3-10 1-15 13-15 29 0 52-11 45-21-3-5-2-9 3-8 20 3 52-14 46-25-4-6 2-4 12 4s16 10 12 3c-10-16 5-24 23-12 10 6 11 9 3 9-7 0-13 4-13 10 0 5 7 6 17 3 10-4 14-2 10 4s-1 14 5 17c7 3 2 4-12 1s-19-2-12 1c6 3 10 10 7 15-4 5 0 6 8 3 11-4 14 3 14 28 0 18 4 32 9 31 6-1 11 4 11 12 0 7-7 11-15 7-10-3-13-1-8 6 6 11-6 17-19 10-2-2-10 6-18 16-9 13-19 16-28 11-11-7-11-5 1 10 14 17 14 18-9 5-21-11-23-10-17 5 4 12 2 16-8 12-17-7-59 26-48 39 4 4-1 2-10-5-17-12-23-8-19 12 1 5-3 6-9 2-5-3-10 0-10 7 0 9-3 9-10-2-7-10-10-11-11-2-1 6-2 18-3 25-1 6-9 11-19 9-9-2-17 2-17 8 0 5-7 10-15 10s-15 5-15 10c0 6-7 10-15 10-13 0-19 11-17 31 1 3-5 6-13 6s-12-4-9-9c3-4 3-8-1-8-3 0-10 11-15 25s-21 27-35 31c-20 5-25 12-22 25 4 16 2 17-14 9-14-8-17-7-13 3 3 8-5 18-18 25-15 7-18 11-8 12 8 1 4 5-10 9-16 5-24 13-22 24 2 10-3 16-10 15-7-2-12 3-10 11 3 12 0 12-12 2s-14-9-9 9c4 17 2 21-12 18-13-2-21 6-27 29-6 24-12 31-25 26-11-4-14-3-9 5 4 7 1 15-8 18s-16 15-16 26c0 16-5 19-21 15s-18-3-8 9c8 10 8 14 0 14-6 0-11 6-11 14 0 7-8 20-17 27-11 10-14 10-9 2 4-7 5-13 2-13s-10 10-17 21c-7 13-7 19-1 15 6-3 14-2 17 4 4 6 3 10-2 9-21-4-33 2-33 17 0 8-4 12-10 9s-10 3-10 14c0 13-7 21-17 21-14 0-15 2-5 9 11 7 11 9-2 14-9 4-16 16-16 27 0 18-11 25-34 21-5-1-4 5 4 13 9 12 10 16 0 16-7 0-10 7-7 14 4 10 1 13-9 9-13-5-20 20-15 50 1 4-7 7-16 5-13-2-18 3-17 20 1 12-3 22-8 22s-7 4-4 8c3 5-1 9-9 9s-12-5-9-11-2-2-12 9c-15 18-16 18-10 2zm-94-30c0-2-9-12-20-22-24-21-27-14-4 9 15 15 24 20 24 13zm270-482c14-19 14-19-2-6-10 7-18 18-18 24s1 8 3 6c1-2 9-13 17-24zm535-295c-3-5-12-10-18-10-7 0-6 4 3 10 19 12 23 12 15 0zm-145-80c0-5-2-10-4-10-3 0-8 5-11 10-3 6-1 10 4 10 6 0 11-4 11-10z"/><path d="m1935 1771c-3-5-2-12 3-15s9 1 9 9c0 17-3 19-12 6z"/><path d="m1965 1741c-6-11 13-26 22-17 4 3 1 6-6 6s-9 5-6 10c3 6 4 10 1 10s-7-4-11-9z"/><path d="m1510 1306c0-2 7-7 16-10 8-3 12-2 9 4-6 10-25 14-25 6z"/><path d="m4787 1113c-4-3-7-11-7-17s5-5 12 2c6 6 9 14 7 17-3 3-9 2-12-2z"/><path d="m2053 825c0-8 4-12 9-9s6 10 3 15c-9 13-12 11-12-6z"/><path d="m2762 246c7-8 15-12 17-11 5 6-10 25-20 25-5 0-4-6 3-14z"/><path d="m3506 88c3-5 10-6 15-3 13 9 11 12-6 12-8 0-12-4-9-9z"/><path d="m3370 82c0-5 7-9 15-9s12 4 9 9c-3 4-9 8-15 8-5 0-9-4-9-8z"/></g></svg>